<svg xmlns="http://www.w3.org/2000/svg" viewBox="0 0 409.2 391.39"><defs><style>.cls-1{fill:#fff;}</style></defs><g id="Layer_2" data-name="Layer 2"><g id="Layer_1-2" data-name="Layer 1"><path class="cls-1" d="M186.62,176.13c2.71-3.12,5.36-6.3,8.15-9.36,5-5.45,9.92-10.94,15.14-16.17,2.6-2.61,5.79-4.63,8.66-7a20.62,20.62,0,0,0,3.22-3.11c3.42-4.26,6.45-8.87,10.18-12.82,3.53-3.73,7.87-6.68,11.66-10.2,2.09-1.94,3.65-4.43,5.66-6.47,3-3,6.17-5.87,9.19-8.87s6.22-6.34,9.42-9.62c-2.15-3.15-4.92-3.14-7.83-1.7C249.57,96,239,101,228.69,106.64c-7.95,4.35-15.34,9.73-23.2,14.27-3.57,2.06-7.86,2.85-11.48,4.84-4.21,2.34-7.79,5.87-12.09,8-16.76,8.33-33.6,16.51-50.6,24.35-12.79,5.9-25.86,11.2-38.82,16.75a34.34,34.34,0,0,1-4.65,1.75c-7.87,2.14-7.8,2.09-9.33-6.23-.28-1.53-1.53-2.88-2.48-4.59l2.9-3.59c.91-1.11,1.84-2.21,3.26-3.93l-4.06.29c-1.89-7.82-1.89-7.82,2.33-9.66a23.65,23.65,0,0,1-.89,2.4,19.74,19.74,0,0,1-1.26,1.89c.77.53,1.37,1.26,2,1.32,1.08.08,2.94.05,3.17-.49,3.27-7.48,11.06-10.09,16.59-15,8.66-7.7,17-16.09,27.78-21.26,4.83-2.31,8.86-6.24,13.43-9.14,1.89-1.19,4.32-2.37,6.4-2.22,4.12.3,6.45-2,8.77-4.57,4-4.46,9.29-5.23,14.93-6,4.79-.63,9.44-2.64,14-4.44.84-.34.92-2.59,1.64-4.84l6.28,4.83c1.46-.67,3.73-1.6,5.89-2.72.83-.43,2.14-1.48,2-1.94-1.61-6.33,3.56-5.66,6.81-6.37,17.56-3.84,33.85-10.84,49.47-19l-3.25-3.81c10.29-4.41,19.91-8.82,29.75-12.64,4.83-1.87,10.36-1.3,14.95-4.71,4.22-3.14,9.1-5.36,13.68-8,.72-.42,1.49-1.45,2.05-1.33,6.24,1.33,11-2.85,16.5-4.33,3.2-.86,6.08-2.88,9.17-4.21,8.65-3.71,17.4-7.17,26-11A214.15,214.15,0,0,0,386.89,1.14c4.1-2.38,5.21-.85,6.08,3L408.58.83c-2,3.94-3.69,7.21-5.87,11.48,1.66.56,3.22,1,4.74,1.62.61.22,1.45.5,1.66,1a2.11,2.11,0,0,1-.36,1.91,14.67,14.67,0,0,1-3.84,3.1,22.94,22.94,0,0,0-11.18,10.79c-.62,1.22-2.49,2-4,2.47-.36.12-1.35-1.59-2-2.46-6.68,6.42-14,12.75-20.45,19.79-10.87,11.77-21.11,24.11-31.86,36-6.73,7.43-13.83,14.53-20.94,21.6-1.44,1.43-3.62,2.19-5.56,3-6.95,3-10.34,9.82-15.59,14.6-4.65,4.22-10.5,7.12-15.83,10.6-.27.17-.64.18-.89.37L258.3,151l2.9,4.3c-3.67-.07-7,2.56-9-2-5.85,4.08-13,7.37-9.58,17.37l41.62-6.08c-1.62,1.75-2.4,3.33-3.2,3.35-12.25.24-21.67,8.79-33.18,11-1.61.32-3.41-.44-5.12-.48-1.22,0-3.12-.09-3.57.6-3.42,5.26-6.51,2.93-9.13.21-2.64,1.28-5.39,1.92-7.11,3.61-3.55,3.46-6.31,7.73-9.85,11.2a68.87,68.87,0,0,1-9.89,7.63c-4.23,2.83-9.75,2.68-13.48,7.36-4.37,5.5-10.23,9.82-15.06,15.43l4.37-1.29c-1,2.41-1.24,4.33-2.32,5.35-6,5.74-12.34,11.2-18.43,16.87-4.95,4.61-9,11-14.75,13.78-13.14,6.41-20,18.77-29.81,28.23-5.9,5.67-12,11.15-17.94,16.77-1.17,1.11-2.12,2.46-4.2,4.9,3-.25,4.71-.06,6.19-.57,10.75-3.75,21.42-7.74,32.17-11.48,10.46-3.63,20.9-7.34,31.5-10.5,9-2.7,18.18-6,27.43-6.57,8.61-.55,15.22-5.2,22.91-7.21,18.52-4.84,34.77-16.24,54.41-18,14.2-1.24,28.23-4.53,42.43-5.54,15.2-1.08,30.52-.54,45.79-.75,7.49-.11,15-.53,22.46-.42a43.73,43.73,0,0,1,13.17,2.42c-8.85-1.36-14.74,4.77-22.05,8.51-.68-2.2-1.14-3.65-1.81-5.83-2.78,1.14-5.43,2.32-8.15,3.32-2.51.93-5.2,4.28-7.39-.68-6.52,5.09-13.88,6.68-21.62,7.67-4.78.61-9.37,2.56-14.1,3.68-3,.7-6.13.84-9.15,1.47-4.44.94-8.84,2.11-13.43,3.22-1-3.9-3.58-2.5-6.26-1-.34-1.43-.76-2.83-1-4.25-.44-2.66-1.64-3.2-4.2-2.2-1.74.68-4.72,1.4-5.51.56-1.3-1.38-1.28-4-2-6.74-1.22-.25-5.15,2.8-4.15,5,2.77,5.94-2.51,7.28-5.32,9.24-3.88,2.71-4.24,2.2-4.41,5.29-2.76,3.51-4.49,6.2-6.71,8.38-2,1.92-4.49,3.24-6.74,4.86-1.43,1-3.52,1.85-4.08,3.26-2,5-6.39,5.71-10.74,6.91-4.19,1.17-8.27,2.78-12.38,4.23-.44.15-1,.88-1.17.78-7.47-3.32-12.25,2.8-18.14,5-2.61,1-5.08,2.78-7.94-.68-.8-1-5.39,1.12-8.22,1.88s-5.61,1.19-8,2.49c-1.43.77-2.11,2.95-3.12,4.49l1.34,2c-3.72.67-7.87.51-11.07,2.19-5.06,2.66-11.29,3.57-14.49,9.71-1.11,2.12-5.48,2.49-8.31,3.76-4,1.81-8,3.72-12,5.58l.71,1.85,10.08-3.34.52,1.38-22.54,10c1-4.42,2.16-7.15,1.95-9.77-.09-1.1-3.63-3.18-4.7-2.72-8.31,3.58-16.39,7.68-24.55,11.62l.55,1.69h7.55c-6.17,7-12.6,11.67-20.75,14.48-12.06,4.15-23.9,8.94-35.67,13.86-5.92,2.47-11.38,6-17.2,8.72-4.89,2.27-9.36.3-13.67-2.17a52.05,52.05,0,0,0-5-2.17c-.18-4.29,1-10-5-11.88.64-4.85,1.08-9.46,2-14a8.32,8.32,0,0,1,2.65-4.45c5.68-4.67,11.81-8.82,17.27-13.73,3-2.7,4.76-6.73,7.48-9.82,4.24-4.82,9-9.21,13.15-14.07,1.2-1.4,1.14-3.83,1.87-5.7a4.58,4.58,0,0,1,1.88-2.19c1.17-.63,2.94-.46,3.79-1.31,3.94-4,7.65-8.13,11.41-12.2l-3.38-2c3.55-3.19,6.84-6,9.89-9a10.47,10.47,0,0,0,2.41-4.3c1.16-3.86,1.55-8.17,7.66-6.13.68.23,3.14-2.46,3.49-4.08.9-4.12,2.55-6.77,7.2-6.76A4.27,4.27,0,0,0,91.64,263c2.7-3.36,5.18-6.9,7.79-10.34.49-.63,1.24-1.57,1.83-1.54,6.8.34,7.12-6.35,11.08-9.06l-.67-1.36C107,242,102.29,243,97.76,244.57s-8.9,3.66-13.28,5.66c-6.09,2.79-11.81,1.88-14.25-2.42-2.65-4.69-.84-12.65,4-15.47,10-5.83,20.42-10.74,31.7-13.6,4.07-1,8.33-1.59,12.2-3.13,3.05-1.21,5.43-4.11,8.47-5.36,6-2.45,12.27-4.1,18.32-6.38,12.78-4.84,24.13-11.85,33.54-22,2.27-2.44,5.51-4,8.3-5.94l-5.89,8.4,1.1,1,14.65-15-1.1-1.1ZM232,99.71l1,2.14,15.66-9.26-1-1.78ZM120.49,244.32,119,242.51l-11.07,6.89,3.65,3.14c-.52-.72-1-1.45-1.55-2.18ZM255,268.49c1.19-.87,3.29-1.62,3.73-2.94s-.65-4.38-1.39-4.49c-1.89-.28-4,.67-5.3,1C253.16,264.48,253.87,266,255,268.49Zm-63.23,20.82c0,1.53-.18,2.14,0,2.51.67,1.12,1.49,2.14,2.24,3.2.32-.87.6-1.76,1-2.61.19-.44.59-.8.8-1.24.55-1.18,1-2.38,1.56-3.57-1.2-.19-2.56-.84-3.53-.46S192.12,288.91,191.77,289.31Zm84.6-212.42.46,1.73,11.47-5-.85-2ZM179.43,188.06l-1.16-1.42-9.86,8.13,1.15,1.41ZM253,273.91l-1-1.74-8.91,4.88.87,1.58Z"/></g></g></svg>