<svg xmlns="http://www.w3.org/2000/svg" viewBox="0 0 365.86 94.4"><defs><style>.cls-1{fill:#fff;}</style></defs><g id="Layer_2" data-name="Layer 2"><g id="Layer_1-2" data-name="Layer 1"><g id="Layer_2-2" data-name="Layer 2"><g id="Layer_1-2-2" data-name="Layer 1-2"><path class="cls-1" d="M330.76,27.78c.43-.49.84-1,1.28-1.48.79-.86,1.57-1.72,2.39-2.55.41-.41.92-.73,1.37-1.1a3.39,3.39,0,0,0,.51-.49c.54-.67,1-1.4,1.6-2s1.24-1.06,1.84-1.61c.33-.31.58-.7.89-1,.48-.48,1-.93,1.45-1.4l1.49-1.52a.86.86,0,0,0-1.24-.27c-1.65.82-3.32,1.61-4.95,2.5-1.25.68-2.41,1.53-3.65,2.25-.57.32-1.24.45-1.82.76s-1.22.93-1.9,1.26c-2.65,1.32-5.3,2.61-8,3.85-2,.93-4.08,1.76-6.13,2.64a4.55,4.55,0,0,1-.73.27c-1.24.34-1.23.33-1.47-1a2.71,2.71,0,0,0-.39-.72l.46-.57.51-.62-.64.05c-.3-1.24-.3-1.24.37-1.53,0,.13-.09.26-.14.38l-.2.3c.12.08.21.2.31.21s.47,0,.5-.08c.52-1.18,1.75-1.59,2.62-2.37a20,20,0,0,1,4.38-3.35,20.83,20.83,0,0,0,2.12-1.44,1.87,1.87,0,0,1,1-.35,1.61,1.61,0,0,0,1.38-.72,3.52,3.52,0,0,1,2.36-.95,9.45,9.45,0,0,0,2.21-.7c.13-.05.14-.41.25-.76l1,.76c.23-.11.59-.25.93-.43.13-.07.34-.23.32-.3-.26-1,.56-.9,1.07-1a31.18,31.18,0,0,0,7.81-3l-.52-.6c1.63-.69,3.14-1.39,4.7-2,.76-.3,1.63-.21,2.35-.74a22.21,22.21,0,0,1,2.16-1.27c.11-.06.24-.22.32-.2,1,.2,1.74-.45,2.61-.69A10.33,10.33,0,0,0,355,3.52c1.37-.59,2.75-1.13,4.1-1.74a33.74,33.74,0,0,0,3.25-1.6c.64-.38.82-.13,1,.47l2.46-.52c-.32.62-.58,1.14-.93,1.81.26.09.51.16.75.26s.23.08.26.15a.35.35,0,0,1-.06.31,2.15,2.15,0,0,1-.6.48,3.67,3.67,0,0,0-1.77,1.71c-.09.19-.39.31-.63.39-.05,0-.21-.26-.31-.39-1.05,1-2.21,2-3.23,3.12-1.71,1.86-3.33,3.8-5,5.68-1.06,1.17-2.18,2.29-3.3,3.4a2.78,2.78,0,0,1-.88.48c-1.1.47-1.63,1.55-2.46,2.3a18.76,18.76,0,0,1-2.5,1.67s-.1,0-.14.06l-2.89,2.26.46.67c-.58,0-1.1.41-1.42-.31-.92.64-2.05,1.16-1.51,2.74l6.57-1c-.26.27-.38.52-.51.53-1.93,0-3.42,1.38-5.23,1.73a4.51,4.51,0,0,1-.81-.07c-.19,0-.49,0-.56.09-.54.83-1,.46-1.44,0a4.68,4.68,0,0,0-1.12.57c-.56.55-1,1.22-1.56,1.77a10.11,10.11,0,0,1-1.56,1.2c-.66.45-1.54.43-2.12,1.16s-1.62,1.55-2.38,2.44l.69-.21c-.16.38-.19.69-.37.85-.94.9-1.94,1.76-2.9,2.66A11.28,11.28,0,0,1,324,40.88c-2.07,1-3.15,3-4.7,4.45-.93.9-1.89,1.76-2.83,2.65-.18.17-.33.39-.66.77a5,5,0,0,0,1-.09c1.7-.59,3.38-1.22,5.08-1.81s3.29-1.16,5-1.65a19.42,19.42,0,0,1,4.32-1c1.36-.09,2.4-.82,3.62-1.14,2.92-.76,5.48-2.56,8.58-2.84,2.24-.19,4.45-.71,6.69-.87,2.4-.17,4.81-.09,7.22-.12,1.18,0,2.37-.08,3.54-.06a6.71,6.71,0,0,1,2.08.38c-1.39-.22-2.32.75-3.48,1.34-.1-.35-.18-.58-.28-.92-.44.18-.86.37-1.29.52s-.82.68-1.16-.1a6.67,6.67,0,0,1-3.41,1.21,19.76,19.76,0,0,0-2.23.58c-.47.11-1,.13-1.44.23-.7.15-1.39.33-2.12.51-.16-.62-.56-.4-1-.16-.05-.23-.12-.45-.15-.67-.07-.42-.26-.51-.67-.35s-.74.22-.86.09-.21-.63-.32-1.06c-.19,0-.81.44-.65.78.43.94-.4,1.15-.84,1.46-.62.43-.67.35-.7.84a15.09,15.09,0,0,1-1.06,1.32,8.88,8.88,0,0,1-1.06.76c-.23.16-.56.3-.64.52-.32.79-1,.9-1.7,1.09s-1.3.44-2,.67c-.07,0-.16.13-.19.12-1.17-.52-1.93.44-2.86.79-.41.16-.8.44-1.25-.11-.12-.16-.85.18-1.29.3a5.54,5.54,0,0,0-1.27.39c-.22.12-.33.46-.49.71l.21.31A6.11,6.11,0,0,0,327,51c-.8.42-1.78.56-2.29,1.53-.17.33-.86.39-1.31.59l-1.89.88.11.29,1.59-.52.08.22-3.55,1.57a6,6,0,0,0,.3-1.54c0-.17-.57-.5-.74-.43-1.31.57-2.58,1.21-3.87,1.84l.09.26h1.19A7.53,7.53,0,0,1,313.4,58c-1.91.65-3.77,1.41-5.63,2.18-.93.39-1.8,1-2.71,1.38a2.28,2.28,0,0,1-2.16-.34,7.91,7.91,0,0,0-.79-.35c0-.67.16-1.57-.79-1.87.1-.77.17-1.49.32-2.21a1.3,1.3,0,0,1,.42-.7c.89-.74,1.86-1.39,2.72-2.17A17.05,17.05,0,0,0,306,52.38c.67-.76,1.42-1.45,2.07-2.21.19-.22.18-.61.3-.9a.69.69,0,0,1,.3-.35c.18-.1.46-.07.59-.21.63-.63,1.21-1.28,1.8-1.92l-.53-.31c.56-.51,1.08-.95,1.56-1.42a1.7,1.7,0,0,0,.38-.68c.18-.61.24-1.29,1.21-1,.11,0,.49-.39.55-.64.14-.65.4-1.07,1.13-1.07a.67.67,0,0,0,.46-.22c.42-.53.82-1.09,1.23-1.63.07-.1.19-.25.29-.24,1.07,0,1.12-1,1.74-1.43l-.1-.22c-.74.21-1.48.37-2.2.61s-1.4.58-2.09.9c-1,.44-1.86.29-2.25-.39a2,2,0,0,1,.63-2.44,19.4,19.4,0,0,1,5-2.14A15.58,15.58,0,0,0,320,34c.48-.2.85-.65,1.33-.85.95-.39,1.94-.65,2.89-1a13.44,13.44,0,0,0,5.29-3.47,7.73,7.73,0,0,1,1.31-.93l-.93,1.32.18.16,2.31-2.37-.18-.17Zm7.16-12,.15.33,2.47-1.46-.15-.28Zm-17.59,22.8-.24-.28-1.74,1.09.57.49c-.08-.11-.15-.23-.24-.34Zm21.21,3.82c.19-.14.52-.26.59-.47s-.1-.69-.22-.71a2.27,2.27,0,0,0-.83.16C341.25,41.71,341.37,42,341.54,42.35Zm-10,3.28c0,.24,0,.34,0,.4s.24.33.35.5c.06-.14.1-.28.16-.41s.1-.13.13-.2.16-.37.24-.56c-.18,0-.4-.13-.55-.07S331.63,45.57,331.57,45.63Zm13.34-33.5.08.27,1.81-.79-.14-.31ZM329.63,29.66l-.19-.22-1.55,1.28.18.22Zm11.6,13.54-.16-.27-1.4.77.13.25Z"/></g></g><path class="cls-1" d="M11.42,57.75H.32V5.25H12.09L28,35.62,43.89,5.25H55.06v52.5H44V24.67L30.69,49.87h-6L11.42,24.67Z"/><path class="cls-1" d="M63.69,38.55c0-11.33,9-20.33,20.85-20.33A19,19,0,0,1,103.81,36.9a12.45,12.45,0,0,1-.45,3.6H74.79c.68,5.1,4.8,8.55,10.42,8.55a12.8,12.8,0,0,0,10.13-4.58l6.45,6.23s-5.18,7.8-17.33,7.8C72.47,58.5,63.69,49.87,63.69,38.55ZM93.31,33.9a9.17,9.17,0,0,0-8.92-7.58,9.65,9.65,0,0,0-9.6,7.58Z"/><path class="cls-1" d="M120.31,19l.53,5.93a14,14,0,0,1,12.37-6.68,13.28,13.28,0,0,1,12.68,8.18A14,14,0,0,1,159,18.22c8,0,14.25,5.7,14.25,15.83v23.7H162.31V37.57c0-6.52-3.07-9.3-7.12-9.3s-7.8,2.63-7.8,8.93V57.75H136.51V37.57c0-6.52-3.15-9.3-7.2-9.3s-7.79,2.63-7.79,8.93V57.75H110.64V19Z"/><path class="cls-1" d="M201.09,18.22c12,0,20.77,8.63,20.77,20S212.71,58.5,200.71,58.5s-20.77-8.63-20.77-20S189.09,18.22,201.09,18.22Zm-.15,30.3A9.93,9.93,0,0,0,211,38.4a10.09,10.09,0,1,0-20.18,0A10,10,0,0,0,200.94,48.52Z"/><path class="cls-1" d="M229,19h9.67l.6,7.58c2.7-5.4,7.73-8.33,14.4-8.33l-.15,11.18h-2.25c-7.12,0-11.4,3.67-11.4,12.37v16H229Z"/><path class="cls-1" d="M268.06,19l8.85,25.65L285.84,19h11.55L281.94,58.12c-3.3,8.18-8.33,12.38-16,12.38a19.39,19.39,0,0,1-10-2.55l3.45-8.48a9.89,9.89,0,0,0,5.55,1.5,6.62,6.62,0,0,0,6.23-3.82L255.91,19Z"/><path class="cls-1" d="M0,63.44H8.53c8.1,0,13.79,5.36,13.79,12.53S16.49,88.64,8.39,88.64H0ZM8.64,85c5.58,0,9.54-3.89,9.54-9s-4-9-9.54-9H4.14V85Z"/><path class="cls-1" d="M25.56,79.46a9.63,9.63,0,0,1,9.86-9.65,9,9,0,0,1,9.07,9A4.72,4.72,0,0,1,44.35,80H29.59a5.77,5.77,0,0,0,6,5.54,6.8,6.8,0,0,0,5.62-2.81l2.41,2.2A9.72,9.72,0,0,1,35.35,89,9.46,9.46,0,0,1,25.56,79.46Zm15.08-2a5.49,5.49,0,0,0-5.29-4.68,5.74,5.74,0,0,0-5.72,4.68Z"/><path class="cls-1" d="M45.11,70.17h4.43l5.22,13.39L60,70.17h4.18l-7.6,18.47H52.74Z"/><path class="cls-1" d="M64.91,79.46a9.63,9.63,0,0,1,9.86-9.65,9,9,0,0,1,9.07,9A4.72,4.72,0,0,1,83.7,80H68.94a5.77,5.77,0,0,0,6,5.54,6.8,6.8,0,0,0,5.62-2.81L83,84.93A9.72,9.72,0,0,1,74.7,89,9.46,9.46,0,0,1,64.91,79.46Zm15.08-2A5.49,5.49,0,0,0,74.7,72.8,5.74,5.74,0,0,0,69,77.48Z"/><path class="cls-1" d="M91.91,63.44v25.2h-4V63.44Z"/><path class="cls-1" d="M106,69.81a9.42,9.42,0,0,1,9.79,9.5A9.7,9.7,0,0,1,105.84,89a9.46,9.46,0,0,1-9.79-9.54A9.67,9.67,0,0,1,106,69.81Zm-.07,15.55a6,6,0,1,0-5.9-6A5.81,5.81,0,0,0,105.91,85.36Z"/><path class="cls-1" d="M123.05,70.17l.36,3.28a8,8,0,0,1,6.8-3.64,9.22,9.22,0,0,1,9.07,9.5A9.46,9.46,0,0,1,130.07,89a7.75,7.75,0,0,1-6.38-3.17V94.4h-4V70.17Zm6.37,15.19a6,6,0,1,0-5.9-6A5.81,5.81,0,0,0,129.42,85.36Z"/><path class="cls-1" d="M146.77,70.17,147,73.3a6.9,6.9,0,0,1,6.26-3.49,6.46,6.46,0,0,1,6.3,4.32,6.89,6.89,0,0,1,6.66-4.32c3.81,0,6.91,2.66,6.91,7.88v11h-4V79c0-3.92-1.94-5.54-4.25-5.54-2.48,0-4.75,1.54-4.75,5.5v9.69h-4V79c0-3.92-1.94-5.54-4.25-5.54-2.48,0-4.75,1.54-4.75,5.5v9.69h-4V70.17Z"/><path class="cls-1" d="M176.83,79.46a9.63,9.63,0,0,1,9.86-9.65,9,9,0,0,1,9.08,9,4.43,4.43,0,0,1-.15,1.23H180.86a5.77,5.77,0,0,0,6,5.54,6.78,6.78,0,0,0,5.62-2.81l2.41,2.2A9.72,9.72,0,0,1,186.62,89,9.46,9.46,0,0,1,176.83,79.46Zm15.08-2a5.49,5.49,0,0,0-5.29-4.68,5.74,5.74,0,0,0-5.72,4.68Z"/><path class="cls-1" d="M199.62,88.64V70.17h3.53l.21,3.2a7.08,7.08,0,0,1,6.45-3.56c3.92,0,7.09,2.7,7.09,8V88.64h-4V79.06c0-4-2-5.61-4.43-5.61-2.66,0-4.93,1.69-4.93,6v9.22Z"/><path class="cls-1" d="M222.77,82.88V73.34h-3.6V70.17h3.6V65.6h4v4.57h6.48v3.17h-6.48v8.71c0,2.23,1.22,3.31,3,3.31a10.46,10.46,0,0,0,2.95-.47l.51,3.28a10.31,10.31,0,0,1-4.36.83C225.14,89,222.77,86.84,222.77,82.88Z"/></g></g></svg>