<svg xmlns="http://www.w3.org/2000/svg" viewBox="0 0 365.55 70.5"><defs><style>.cls-1{fill:#fff;}</style></defs><g id="Layer_2" data-name="Layer 2"><g id="Layer_1-2" data-name="Layer 1"><g id="Layer_2-2" data-name="Layer 2"><g id="Layer_1-2-2" data-name="Layer 1-2"><path class="cls-1" d="M330.44,27.78c.43-.49.85-1,1.29-1.48.79-.86,1.56-1.72,2.39-2.55.41-.41.91-.73,1.36-1.1a3.39,3.39,0,0,0,.51-.49c.54-.67,1-1.4,1.61-2s1.24-1.06,1.84-1.61c.32-.31.57-.7.89-1,.47-.48,1-.93,1.45-1.4l1.48-1.52a.85.85,0,0,0-1.23-.27c-1.66.82-3.33,1.61-4.95,2.5-1.26.68-2.42,1.53-3.66,2.25-.56.32-1.24.45-1.81.76s-1.23.93-1.91,1.26c-2.64,1.32-5.3,2.61-8,3.85-2,.93-4.08,1.76-6.12,2.64a4.93,4.93,0,0,1-.73.27c-1.25.34-1.23.33-1.48-1a2.71,2.71,0,0,0-.39-.72l.46-.57L314,25l-.64.05c-.29-1.24-.29-1.24.37-1.53,0,.13-.09.26-.14.38l-.2.3c.12.08.22.2.32.21s.46,0,.5-.08c.51-1.18,1.74-1.59,2.61-2.37a20,20,0,0,1,4.39-3.35,20.71,20.71,0,0,0,2.11-1.44,1.89,1.89,0,0,1,1-.35,1.64,1.64,0,0,0,1.39-.72,3.49,3.49,0,0,1,2.35-.95,9.31,9.31,0,0,0,2.21-.7c.13-.05.14-.41.26-.76l1,.76c.23-.11.59-.25.93-.43.13-.07.34-.23.31-.3-.25-1,.56-.9,1.08-1a31,31,0,0,0,7.8-3l-.51-.6c1.62-.69,3.14-1.39,4.69-2,.76-.3,1.63-.21,2.36-.74a20.93,20.93,0,0,1,2.15-1.27c.12-.06.24-.22.33-.2,1,.2,1.73-.45,2.6-.69a10.45,10.45,0,0,0,1.45-.66c1.36-.59,2.74-1.13,4.1-1.74A32.47,32.47,0,0,0,362,.18c.65-.38.82-.13,1,.47l2.46-.52c-.31.62-.58,1.14-.92,1.81.26.09.5.16.74.26s.23.08.26.15a.34.34,0,0,1,0,.31,2.2,2.2,0,0,1-.61.48,3.61,3.61,0,0,0-1.76,1.71,1.12,1.12,0,0,1-.63.39c-.06,0-.21-.26-.32-.39-1.05,1-2.21,2-3.22,3.12-1.72,1.86-3.33,3.8-5,5.68-1.06,1.17-2.18,2.29-3.3,3.4a2.68,2.68,0,0,1-.88.48c-1.09.47-1.63,1.55-2.46,2.3a18.65,18.65,0,0,1-2.49,1.67s-.1,0-.14.06l-2.89,2.26.46.67c-.58,0-1.11.41-1.42-.31-.93.64-2.05,1.16-1.51,2.74l6.56-1c-.26.27-.38.52-.5.53-1.94,0-3.42,1.38-5.24,1.73a4.59,4.59,0,0,1-.81-.07c-.19,0-.49,0-.56.09-.54.83-1,.46-1.44,0a4.87,4.87,0,0,0-1.12.57c-.56.55-1,1.22-1.55,1.77a11.17,11.17,0,0,1-1.56,1.2c-.67.45-1.54.43-2.13,1.16s-1.61,1.55-2.37,2.44l.68-.21c-.15.38-.19.69-.36.85-.95.9-1.95,1.76-2.91,2.66a11.5,11.5,0,0,1-2.32,2.17c-2.08,1-3.16,3-4.71,4.45-.93.9-1.89,1.76-2.83,2.65-.18.17-.33.39-.66.77a5.07,5.07,0,0,0,1-.09c1.69-.59,3.38-1.22,5.07-1.81s3.3-1.16,5-1.65a19.51,19.51,0,0,1,4.33-1c1.35-.09,2.4-.82,3.61-1.14,2.92-.76,5.48-2.56,8.58-2.84,2.24-.19,4.45-.71,6.69-.87,2.4-.17,4.82-.09,7.23-.12,1.18,0,2.36-.08,3.54-.06a6.71,6.71,0,0,1,2.08.38c-1.4-.22-2.33.75-3.48,1.34l-.29-.92c-.44.18-.85.37-1.28.52s-.82.68-1.17-.1a6.67,6.67,0,0,1-3.41,1.21,19.6,19.6,0,0,0-2.22.58c-.48.11-1,.13-1.45.23-.7.15-1.39.33-2.11.51-.16-.62-.57-.4-1-.16-.05-.23-.12-.45-.16-.67-.07-.42-.26-.51-.66-.35s-.75.22-.87.09-.2-.63-.32-1.06c-.19,0-.81.44-.65.78.44.94-.4,1.15-.84,1.46-.61.43-.67.35-.7.84a15.2,15.2,0,0,1-1.05,1.32,9,9,0,0,1-1.07.76c-.22.16-.55.3-.64.52-.32.79-1,.9-1.69,1.09s-1.31.44-2,.67c-.07,0-.15.13-.18.12-1.18-.52-1.93.44-2.86.79-.41.16-.8.44-1.25-.11-.13-.16-.85.18-1.3.3a5.31,5.31,0,0,0-1.26.39c-.23.12-.34.46-.49.71l.21.31a6.18,6.18,0,0,0-1.75.35c-.8.42-1.78.56-2.28,1.53-.18.33-.87.39-1.32.59l-1.89.88.11.29,1.59-.52.09.22-3.56,1.57a6.08,6.08,0,0,0,.31-1.54.92.92,0,0,0-.74-.43c-1.31.57-2.59,1.21-3.87,1.84l.08.26h1.19A7.47,7.47,0,0,1,313.08,58c-1.9.65-3.77,1.41-5.63,2.18-.93.39-1.79,1-2.71,1.38a2.26,2.26,0,0,1-2.15-.34,7.91,7.91,0,0,0-.79-.35c0-.67.15-1.57-.79-1.87.1-.77.17-1.49.31-2.21a1.3,1.3,0,0,1,.42-.7c.9-.74,1.86-1.39,2.73-2.17a15.33,15.33,0,0,0,1.17-1.55c.67-.76,1.42-1.45,2.08-2.21.19-.22.18-.61.29-.9a.74.74,0,0,1,.3-.35c.18-.1.46-.07.6-.21.62-.63,1.2-1.28,1.8-1.92l-.54-.31c.56-.51,1.08-.95,1.56-1.42a1.7,1.7,0,0,0,.38-.68c.19-.61.25-1.29,1.21-1,.11,0,.5-.39.55-.64.15-.65.41-1.07,1.14-1.07a.65.65,0,0,0,.45-.22c.43-.53.82-1.09,1.23-1.63.08-.1.2-.25.29-.24,1.07,0,1.12-1,1.75-1.43l-.11-.22c-.73.21-1.48.37-2.19.61s-1.41.58-2.1.9c-1,.44-1.86.29-2.24-.39a2,2,0,0,1,.63-2.44,19.25,19.25,0,0,1,5-2.14,15.43,15.43,0,0,0,1.92-.49c.48-.2.86-.65,1.34-.85.94-.39,1.93-.65,2.89-1a13.58,13.58,0,0,0,5.29-3.47,7.35,7.35,0,0,1,1.31-.93l-.93,1.32.17.16L332,26.86l-.17-.17Z"/></g></g><path class="cls-1" d="M11.1,57.75H0V5.25H11.77l15.9,30.37L43.57,5.25H54.75v52.5H43.65V24.67L30.37,49.87h-6L11.1,24.67Z"/><path class="cls-1" d="M63.38,38.55c0-11.33,9-20.33,20.84-20.33A19,19,0,0,1,103.5,36.9a12.45,12.45,0,0,1-.45,3.6H74.47c.68,5.1,4.8,8.55,10.43,8.55A12.79,12.79,0,0,0,95,44.47l6.45,6.23s-5.17,7.8-17.32,7.8S63.38,49.87,63.38,38.55ZM93,33.9a9.18,9.18,0,0,0-8.93-7.58,9.65,9.65,0,0,0-9.6,7.58Z"/><path class="cls-1" d="M120,19l.52,5.93a14,14,0,0,1,12.38-6.68,13.27,13.27,0,0,1,12.67,8.18,14,14,0,0,1,13.13-8.18c8,0,14.25,5.7,14.25,15.83v23.7H162V37.57c0-6.52-3.08-9.3-7.13-9.3s-7.8,2.63-7.8,8.93V57.75H136.2V37.57c0-6.52-3.15-9.3-7.2-9.3s-7.8,2.63-7.8,8.93V57.75H110.32V19Z"/><path class="cls-1" d="M200.77,18.22c12,0,20.78,8.63,20.78,20S212.4,58.5,200.4,58.5s-20.78-8.63-20.78-20S188.77,18.22,200.77,18.22Zm-.15,30.3a9.92,9.92,0,0,0,10-10.12,10.09,10.09,0,1,0-20.17,0A9.94,9.94,0,0,0,200.62,48.52Z"/><path class="cls-1" d="M228.67,19h9.68l.6,7.58c2.7-5.4,7.72-8.33,14.4-8.33L253.2,29.4H251c-7.13,0-11.4,3.67-11.4,12.37v16H228.67Z"/><path class="cls-1" d="M267.75,19l8.85,25.65L285.52,19h11.55L281.62,58.12c-3.3,8.18-8.32,12.38-16,12.38a19.35,19.35,0,0,1-10-2.55l3.45-8.48A9.85,9.85,0,0,0,264.6,61a6.6,6.6,0,0,0,6.22-3.82L255.6,19Z"/></g></g></svg>